<?xml version="1.0" encoding="iso-8859-1"?>
<!-- Generator: Adobe Illustrator 19.1.0, SVG Export Plug-In . SVG Version: 6.00 Build 0)  -->
<svg version="1.1" id="Capa_1" xmlns="http://www.w3.org/2000/svg" xmlns:xlink="http://www.w3.org/1999/xlink" x="0px" y="0px"
	 viewBox="0 0 67.5 67.5" style="enable-background:new 0 0 67.5 67.5;" xml:space="preserve">
<g>
	<g id="group-62svg">
		<path id="path-1_57_" style="fill:#53ECF4;" d="M67.5,35.5c0,16.569-13.431,30-30,30s-30-13.431-30-30c0-16.568,13.431-30,30-30
			S67.5,18.932,67.5,35.5z"/>
		<path id="path-2_57_" d="M31.5,65C14.131,65,0,50.869,0,33.5S14.131,2,31.5,2S63,16.131,63,33.5S48.869,65,31.5,65z M31.5,5
			C15.785,5,3,17.785,3,33.5S15.785,62,31.5,62S60,49.215,60,33.5S47.215,5,31.5,5z"/>
		<path id="path-3_57_" d="M48.223,43.353h-1.59c-0.829,0-1.5-0.672-1.5-1.5c0-0.828,0.671-1.5,1.5-1.5h1.59
			c0.102,0,0.141-0.017,0.141-0.017l0,0c-0.001,0,0.269-0.277,0.269-1.452V36.27c0-0.919-0.229-3.917-3.174-3.917H16.36
			c-2.186,0-4.727,1.711-4.727,3.917v2.614c0,0.545,1.116,1.469,1.963,1.469h1.037c0.829,0,1.5,0.672,1.5,1.5
			c0,0.828-0.671,1.5-1.5,1.5h-1.037c-2.248,0-4.963-1.993-4.963-4.469V36.27c0-4.076,4.072-6.917,7.727-6.917h29.099
			c3.693,0,6.174,2.779,6.174,6.917v2.614C51.633,43.03,49.023,43.353,48.223,43.353z"/>
		<path id="path-4_49_" d="M37.633,43.353h-14c-0.829,0-1.5-0.672-1.5-1.5c0-0.828,0.671-1.5,1.5-1.5h14c0.829,0,1.5,0.672,1.5,1.5
			C39.133,42.681,38.462,43.353,37.633,43.353z"/>
		<path id="path-5_27_" d="M39.787,31.305c-0.829,0-1.5-0.672-1.5-1.5c0-3.827-4.376-6.942-9.755-6.942s-9.756,3.115-9.756,6.942
			c0,0.828-0.671,1.5-1.499,1.5c-0.829,0-1.5-0.672-1.5-1.5c0-5.482,5.722-9.942,12.755-9.942s12.755,4.46,12.755,9.942
			C41.287,30.633,40.615,31.305,39.787,31.305z"/>
		<path id="path-6_23_" d="M42.446,46.948c-2.986,0-5.416-2.429-5.416-5.416c0-2.986,2.43-5.416,5.416-5.416s5.415,2.43,5.415,5.416
			C47.861,44.519,45.432,46.948,42.446,46.948z M42.446,39.116c-1.332,0-2.416,1.084-2.416,2.416c0,1.332,1.084,2.416,2.416,2.416
			s2.415-1.084,2.415-2.416C44.861,40.2,43.778,39.116,42.446,39.116z"/>
		<path id="path-7_17_" d="M19.642,46.948c-2.986,0-5.415-2.429-5.415-5.416c0-2.986,2.429-5.416,5.415-5.416
			c2.987,0,5.416,2.43,5.416,5.416C25.058,44.519,22.629,46.948,19.642,46.948z M19.642,39.116c-1.332,0-2.415,1.084-2.415,2.416
			c0,1.332,1.083,2.416,2.415,2.416c1.332,0,2.416-1.084,2.416-2.416C22.058,40.2,20.974,39.116,19.642,39.116z"/>
		<path id="path-8_11_" d="M28.133,31.853c-0.829,0-1.5-0.672-1.5-1.5v-9c0-0.828,0.671-1.5,1.5-1.5s1.5,0.672,1.5,1.5v9
			C29.633,31.181,28.962,31.853,28.133,31.853z"/>
		<path id="path-9_5_" d="M49.633,36.353h-3c-0.829,0-1.5-0.672-1.5-1.5c0-0.828,0.671-1.5,1.5-1.5h3c0.829,0,1.5,0.672,1.5,1.5
			C51.133,35.681,50.462,36.353,49.633,36.353z"/>
	</g>
</g>
<g>
</g>
<g>
</g>
<g>
</g>
<g>
</g>
<g>
</g>
<g>
</g>
<g>
</g>
<g>
</g>
<g>
</g>
<g>
</g>
<g>
</g>
<g>
</g>
<g>
</g>
<g>
</g>
<g>
</g>
</svg>
